<svg width="101" height="19" viewBox="0 0 101 19" fill="none" xmlns="http://www.w3.org/2000/svg">
<path d="M17.212 18.564H13.312L11.908 14.378L4.628 16.328L3.874 18.564H8.85688e-07L6.37 0.363964H10.816L17.212 18.564ZM8.606 4.49796L5.902 12.532L10.868 11.206L8.606 4.49796ZM29.5092 11.466V0.363964H33.0972V18.564H30.3672L22.5672 7.43596V18.564H18.9792V0.363964H21.7092L29.5092 11.466ZM42.408 18.928C40.6227 18.928 39.1147 18.5293 37.884 17.732C36.6534 16.9346 35.778 15.834 35.258 14.43L38.326 12.636C39.0367 14.4906 40.432 15.418 42.512 15.418C43.4827 15.418 44.2107 15.2446 44.696 14.898C45.1814 14.5513 45.424 14.0833 45.424 13.494C45.424 12.8526 45.138 12.3586 44.566 12.012C43.994 11.648 42.9714 11.258 41.498 10.842C39.9034 10.3566 38.6467 9.7933 37.728 9.15196C36.584 8.30263 36.012 7.05463 36.012 5.40796C36.012 3.74396 36.5927 2.4353 37.754 1.48196C38.9154 0.493964 40.328 -3.63588e-05 41.992 -3.63588e-05C43.448 -3.63588e-05 44.7394 0.355297 45.866 1.06596C46.9927 1.77663 47.868 2.78196 48.492 4.08196L45.476 5.82396C44.748 4.26396 43.5867 3.48396 41.992 3.48396C41.264 3.48396 40.6834 3.6573 40.25 4.00396C39.8167 4.3333 39.6 4.76663 39.6 5.30396C39.6 5.87596 39.834 6.34396 40.302 6.70796C40.822 7.07196 41.7407 7.4533 43.058 7.85196L44.306 8.26796C44.5314 8.3373 44.9214 8.48463 45.476 8.70996C45.996 8.90063 46.3774 9.08263 46.62 9.25596C47.4694 9.77596 48.0414 10.3133 48.336 10.868C48.7867 11.596 49.012 12.454 49.012 13.442C49.012 15.1233 48.3967 16.458 47.166 17.446C45.9354 18.434 44.3494 18.928 42.408 18.928ZM66.6729 18.564H62.7729L61.3689 14.378L54.0889 16.328L53.3349 18.564H49.4609L55.8309 0.363964H60.2769L66.6729 18.564ZM58.0669 4.49796L55.3629 12.532L60.3289 11.206L58.0669 4.49796ZM82.2981 18.564H78.4241L74.7581 12.246H72.0281V18.564H68.4401V0.363964H75.7201C77.4015 0.363964 78.8315 0.953297 80.0101 2.13196C81.1888 3.31063 81.7781 4.73196 81.7781 6.39596C81.7781 7.52263 81.4575 8.5713 80.8161 9.54196C80.1748 10.4953 79.3255 11.2146 78.2681 11.7L82.2981 18.564ZM75.7201 3.71796H72.0281V9.09996H75.7201C76.3961 9.09996 76.9768 8.83996 77.4621 8.31996C77.9475 7.78263 78.1901 7.1413 78.1901 6.39596C78.1901 5.65063 77.9475 5.01796 77.4621 4.49796C76.9768 3.97796 76.3961 3.71796 75.7201 3.71796ZM100.011 18.564H96.1108L94.7068 14.378L87.4268 16.328L86.6728 18.564H82.7988L89.1688 0.363964H93.6148L100.011 18.564ZM91.4048 4.49796L88.7008 12.532L93.6668 11.206L91.4048 4.49796Z" fill="white"/>
</svg>
