<svg width="101" height="19" viewBox="0 0 101 19" fill="none" xmlns="http://www.w3.org/2000/svg">
<g clip-path="url(#clip0_155_446)">
<path d="M17.212 18.564H13.312L11.908 14.378L4.628 16.328L3.874 18.564H0L6.37 0.364H10.816L17.212 18.564ZM8.606 4.498L5.902 12.532L10.868 11.206L8.606 4.498ZM29.5092 11.466V0.364H33.0972V18.564H30.3672L22.5672 7.436V18.564H18.9792V0.364H21.7092L29.5092 11.466ZM42.408 18.928C40.6227 18.928 39.1147 18.5293 37.884 17.732C36.6534 16.9346 35.778 15.834 35.258 14.43L38.326 12.636C39.0367 14.4906 40.432 15.418 42.512 15.418C43.4827 15.418 44.2107 15.2446 44.696 14.898C45.1814 14.5513 45.424 14.0833 45.424 13.494C45.424 12.8526 45.138 12.3586 44.566 12.012C43.994 11.648 42.9714 11.258 41.498 10.842C39.9034 10.3566 38.6467 9.79334 37.728 9.152C36.584 8.30267 36.012 7.05467 36.012 5.408C36.012 3.744 36.5927 2.43534 37.754 1.482C38.9154 0.494 40.328 0 41.992 0C43.448 0 44.7394 0.355333 45.866 1.066C46.9927 1.77667 47.868 2.782 48.492 4.082L45.476 5.824C44.748 4.264 43.5867 3.484 41.992 3.484C41.264 3.484 40.6834 3.65734 40.25 4.004C39.8167 4.33334 39.6 4.76667 39.6 5.304C39.6 5.876 39.834 6.344 40.302 6.708C40.822 7.072 41.7407 7.45334 43.058 7.852L44.306 8.268C44.5314 8.33734 44.9214 8.48467 45.476 8.71C45.996 8.90067 46.3774 9.08267 46.62 9.256C47.4694 9.776 48.0414 10.3133 48.336 10.868C48.7867 11.596 49.012 12.454 49.012 13.442C49.012 15.1233 48.3967 16.458 47.166 17.446C45.9354 18.434 44.3494 18.928 42.408 18.928ZM66.6729 18.564H62.7729L61.3689 14.378L54.0889 16.328L53.3349 18.564H49.4609L55.8309 0.364H60.2769L66.6729 18.564ZM58.0669 4.498L55.3629 12.532L60.3289 11.206L58.0669 4.498ZM82.2981 18.564H78.4241L74.7581 12.246H72.0281V18.564H68.4401V0.364H75.7201C77.4015 0.364 78.8315 0.953333 80.0101 2.132C81.1888 3.31067 81.7781 4.732 81.7781 6.396C81.7781 7.52267 81.4575 8.57134 80.8161 9.542C80.1748 10.4953 79.3255 11.2146 78.2681 11.7L82.2981 18.564ZM75.7201 3.718H72.0281V9.1H75.7201C76.3961 9.1 76.9768 8.84 77.4621 8.32C77.9475 7.78267 78.1901 7.14134 78.1901 6.396C78.1901 5.65067 77.9475 5.018 77.4621 4.498C76.9768 3.978 76.3961 3.718 75.7201 3.718ZM100.011 18.564H96.1108L94.7068 14.378L87.4268 16.328L86.6728 18.564H82.7988L89.1688 0.364H93.6148L100.011 18.564ZM91.4048 4.498L88.7008 12.532L93.6668 11.206L91.4048 4.498Z" fill="black"/>
</g>
<defs>
<clipPath id="clip0_155_446">
<rect width="101" height="19" fill="white"/>
</clipPath>
</defs>
</svg>
